<?xml version="1.0" encoding="UTF-8" standalone="no"?>
<!DOCTYPE svg PUBLIC "-//W3C//DTD SVG 1.1//EN"
 "http://www.w3.org/Graphics/SVG/1.1/DTD/svg11.dtd">
<!-- Generated by graphviz version 7.0.2 (20221119.0110)
 -->
<!-- Title: Internal structures Pages: 1 -->
<svg width="850pt" height="373pt"
 viewBox="0.00 0.00 850.00 373.00" xmlns="http://www.w3.org/2000/svg" xmlns:xlink="http://www.w3.org/1999/xlink">
<g id="graph0" class="graph" transform="scale(1 1) rotate(0) translate(4 369)">
<title>Internal structures</title>
<polygon fill="white" stroke="none" points="-4,4 -4,-369 846,-369 846,4 -4,4"/>
<g id="clust3" class="cluster">
<title>cluster_node0</title>
<polygon fill="none" stroke="black" points="8,-174 8,-249 278,-249 278,-174 8,-174"/>
<text text-anchor="middle" x="143" y="-233.8" font-family="Times,serif" font-size="14.00">Node 0</text>
</g>
<g id="clust5" class="cluster">
<title>cluster_node0_0</title>
<polygon fill="none" stroke="black" points="8,-91 8,-166 278,-166 278,-91 8,-91"/>
<text text-anchor="middle" x="143" y="-150.8" font-family="Times,serif" font-size="14.00">Node 0.0</text>
</g>
<g id="clust7" class="cluster">
<title>cluster_node0_1</title>
<polygon fill="none" stroke="black" points="286,-91 286,-166 556,-166 556,-91 286,-91"/>
<text text-anchor="middle" x="421" y="-150.8" font-family="Times,serif" font-size="14.00">Node 0.1</text>
</g>
<g id="clust9" class="cluster">
<title>cluster_node0_1_0</title>
<polygon fill="none" stroke="black" points="286,-8 286,-83 556,-83 556,-8 286,-8"/>
<text text-anchor="middle" x="421" y="-67.8" font-family="Times,serif" font-size="14.00">Node 0.1.0</text>
</g>
<g id="clust11" class="cluster">
<title>cluster_node0_1_1</title>
<polygon fill="none" stroke="black" points="564,-8 564,-83 834,-83 834,-8 564,-8"/>
<text text-anchor="middle" x="699" y="-67.8" font-family="Times,serif" font-size="14.00">Node 0.1.1</text>
</g>
<!-- treecore0 -->
<g id="node1" class="node">
<title>treecore0</title>
<ellipse fill="none" stroke="black" cx="62" cy="-275" rx="46.29" ry="18"/>
<text text-anchor="middle" x="62" y="-271.3" font-family="monospace" font-size="14.00">TreeCore</text>
</g>
<!-- node0_nodecore -->
<g id="node3" class="node">
<title>node0_nodecore</title>
<ellipse fill="none" stroke="black" cx="62" cy="-200" rx="46.29" ry="18"/>
<text text-anchor="middle" x="62" y="-196.3" font-family="monospace" font-size="14.00">NodeCore</text>
</g>
<!-- treecore0&#45;&gt;node0_nodecore -->
<g id="edge13" class="edge">
<title>treecore0&#45;&gt;node0_nodecore</title>
<path fill="none" stroke="tomato" stroke-width="2" d="M62,-256.7C62,-248.67 62,-238.9 62,-229.8"/>
<polygon fill="tomato" stroke="tomato" stroke-width="2" points="65.5,-231.46 62,-221.46 58.5,-231.46 65.5,-231.46"/>
</g>
<!-- tree0_0 -->
<g id="node2" class="node">
<title>tree0_0</title>
<ellipse fill="wheat" stroke="tomato" stroke-width="2" cx="62" cy="-347" rx="28.7" ry="18"/>
<text text-anchor="middle" x="62" y="-343.3" font-family="monospace" font-size="14.00">Tree</text>
</g>
<!-- tree0_0&#45;&gt;treecore0 -->
<g id="edge1" class="edge">
<title>tree0_0&#45;&gt;treecore0</title>
<path fill="none" stroke="tomato" stroke-width="2" d="M62,-328.7C62,-321.41 62,-312.73 62,-304.54"/>
<polygon fill="tomato" stroke="tomato" stroke-width="2" points="65.5,-306.13 62,-296.13 58.5,-306.13 65.5,-306.13"/>
</g>
<!-- node0_membership -->
<g id="node4" class="node">
<title>node0_membership</title>
<ellipse fill="none" stroke="black" cx="198" cy="-200" rx="72.29" ry="18"/>
<text text-anchor="middle" x="198" y="-196.3" font-family="monospace" font-size="14.00">MembershipCore</text>
</g>
<!-- node0_nodecore&#45;&gt;node0_membership -->
<g id="edge2" class="edge">
<title>node0_nodecore&#45;&gt;node0_membership</title>
<path fill="none" stroke="black" d="M99.72,-189.18C111.36,-187.12 122.99,-186.25 134.63,-186.56"/>
<polygon fill="black" stroke="black" points="134.09,-190.04 144.28,-187.14 134.5,-183.05 134.09,-190.04"/>
</g>
<!-- node0_nodecore&#45;&gt;node0_membership -->
<!-- node0_nodecore&#45;&gt;node0_membership -->
<!-- node0_0_nodecore -->
<g id="node5" class="node">
<title>node0_0_nodecore</title>
<ellipse fill="none" stroke="black" cx="62" cy="-117" rx="46.29" ry="18"/>
<text text-anchor="middle" x="62" y="-113.3" font-family="monospace" font-size="14.00">NodeCore</text>
</g>
<!-- node0_nodecore&#45;&gt;node0_0_nodecore -->
<g id="edge14" class="edge">
<title>node0_nodecore&#45;&gt;node0_0_nodecore</title>
<path fill="none" stroke="tomato" stroke-width="2" d="M62,-181.82C62,-171.69 62,-158.6 62,-146.92"/>
<polygon fill="tomato" stroke="tomato" stroke-width="2" points="65.5,-148.46 62,-138.46 58.5,-148.46 65.5,-148.46"/>
</g>
<!-- node0_membership&#45;&gt;treecore0 -->
<g id="edge4" class="edge">
<title>node0_membership&#45;&gt;treecore0</title>
<path fill="none" stroke="black" stroke-dasharray="5,2" d="M172.5,-217.07C156.75,-226.76 135.99,-239.1 117,-249 112.31,-251.45 107.33,-253.9 102.35,-256.27"/>
<polygon fill="black" stroke="black" points="101.22,-252.93 93.63,-260.32 104.17,-259.28 101.22,-252.93"/>
</g>
<!-- node0_0_membership -->
<g id="node6" class="node">
<title>node0_0_membership</title>
<ellipse fill="none" stroke="black" cx="198" cy="-117" rx="72.29" ry="18"/>
<text text-anchor="middle" x="198" y="-113.3" font-family="monospace" font-size="14.00">MembershipCore</text>
</g>
<!-- node0_0_nodecore&#45;&gt;node0_0_membership -->
<g id="edge5" class="edge">
<title>node0_0_nodecore&#45;&gt;node0_0_membership</title>
<path fill="none" stroke="black" d="M99.72,-106.18C111.36,-104.12 122.99,-103.25 134.63,-103.56"/>
<polygon fill="black" stroke="black" points="134.09,-107.04 144.28,-104.14 134.5,-100.05 134.09,-107.04"/>
</g>
<!-- node0_0_nodecore&#45;&gt;node0_0_membership -->
<!-- node0_1_nodecore -->
<g id="node7" class="node">
<title>node0_1_nodecore</title>
<ellipse fill="none" stroke="black" cx="340" cy="-117" rx="46.29" ry="18"/>
<text text-anchor="middle" x="340" y="-113.3" font-family="monospace" font-size="14.00">NodeCore</text>
</g>
<!-- node0_0_nodecore&#45;&gt;node0_1_nodecore -->
<g id="edge16" class="edge">
<title>node0_0_nodecore&#45;&gt;node0_1_nodecore</title>
<path fill="none" stroke="tomato" stroke-width="2" d="M75.18,-134.7C86.74,-148.32 104.97,-165.54 126,-170 141.98,-173.39 257.02,-173.39 273,-170 290.4,-166.31 306.19,-154.45 318.07,-142.88"/>
<polygon fill="tomato" stroke="tomato" stroke-width="2" points="319.5,-146.45 323.9,-136.82 314.45,-141.6 319.5,-146.45"/>
</g>
<!-- node0_0_membership&#45;&gt;treecore0 -->
<g id="edge6" class="edge">
<title>node0_0_membership&#45;&gt;treecore0</title>
<path fill="none" stroke="black" stroke-dasharray="5,2" d="M235.09,-132.7C252.68,-141.77 271.99,-155.3 282,-174 297.73,-203.39 304.2,-224.13 282,-249 271.29,-261 180.58,-267.99 119.04,-271.4"/>
<polygon fill="black" stroke="black" points="119.22,-267.88 109.42,-271.91 119.59,-274.87 119.22,-267.88"/>
</g>
<!-- node0_0_membership&#45;&gt;node0_1_nodecore -->
<!-- node0_1_membership -->
<g id="node8" class="node">
<title>node0_1_membership</title>
<ellipse fill="none" stroke="black" cx="476" cy="-117" rx="72.29" ry="18"/>
<text text-anchor="middle" x="476" y="-113.3" font-family="monospace" font-size="14.00">MembershipCore</text>
</g>
<!-- node0_1_nodecore&#45;&gt;node0_1_membership -->
<g id="edge7" class="edge">
<title>node0_1_nodecore&#45;&gt;node0_1_membership</title>
<path fill="none" stroke="black" d="M377.72,-106.18C389.36,-104.12 400.99,-103.25 412.63,-103.56"/>
<polygon fill="black" stroke="black" points="412.09,-107.04 422.28,-104.14 412.5,-100.05 412.09,-107.04"/>
</g>
<!-- node0_1_nodecore&#45;&gt;node0_1_membership -->
<!-- node0_1_0_nodecore -->
<g id="node9" class="node">
<title>node0_1_0_nodecore</title>
<ellipse fill="none" stroke="black" cx="340" cy="-34" rx="46.29" ry="18"/>
<text text-anchor="middle" x="340" y="-30.3" font-family="monospace" font-size="14.00">NodeCore</text>
</g>
<!-- node0_1_nodecore&#45;&gt;node0_1_0_nodecore -->
<g id="edge15" class="edge">
<title>node0_1_nodecore&#45;&gt;node0_1_0_nodecore</title>
<path fill="none" stroke="tomato" stroke-width="2" d="M340,-98.82C340,-88.69 340,-75.6 340,-63.92"/>
<polygon fill="tomato" stroke="tomato" stroke-width="2" points="343.5,-65.46 340,-55.46 336.5,-65.46 343.5,-65.46"/>
</g>
<!-- node0_1_membership&#45;&gt;treecore0 -->
<g id="edge8" class="edge">
<title>node0_1_membership&#45;&gt;treecore0</title>
<path fill="none" stroke="tomato" stroke-width="2" d="M460.38,-134.86C432.28,-163.93 369.96,-222.89 304,-249 271.53,-261.85 180.05,-268.53 119.34,-271.65"/>
<polygon fill="tomato" stroke="tomato" stroke-width="2" points="120.84,-268.07 111.03,-272.06 121.19,-275.06 120.84,-268.07"/>
</g>
<!-- node0_handle -->
<g id="node13" class="node">
<title>node0_handle</title>
<ellipse fill="wheat" stroke="tomato" stroke-width="2" cx="671" cy="-117" rx="28.7" ry="18"/>
<text text-anchor="middle" x="671" y="-113.3" font-family="monospace" font-size="14.00">Node</text>
</g>
<!-- node0_1_membership&#45;&gt;node0_handle -->
<!-- node0_1_0_membership -->
<g id="node10" class="node">
<title>node0_1_0_membership</title>
<ellipse fill="none" stroke="black" cx="476" cy="-34" rx="72.29" ry="18"/>
<text text-anchor="middle" x="476" y="-30.3" font-family="monospace" font-size="14.00">MembershipCore</text>
</g>
<!-- node0_1_0_nodecore&#45;&gt;node0_1_0_membership -->
<g id="edge9" class="edge">
<title>node0_1_0_nodecore&#45;&gt;node0_1_0_membership</title>
<path fill="none" stroke="black" d="M377.72,-23.18C389.36,-21.12 400.99,-20.25 412.63,-20.56"/>
<polygon fill="black" stroke="black" points="412.09,-24.04 422.28,-21.14 412.5,-17.05 412.09,-24.04"/>
</g>
<!-- node0_1_0_nodecore&#45;&gt;node0_1_0_membership -->
<!-- node0_1_1_nodecore -->
<g id="node11" class="node">
<title>node0_1_1_nodecore</title>
<ellipse fill="none" stroke="black" cx="618" cy="-34" rx="46.29" ry="18"/>
<text text-anchor="middle" x="618" y="-30.3" font-family="monospace" font-size="14.00">NodeCore</text>
</g>
<!-- node0_1_0_nodecore&#45;&gt;node0_1_1_nodecore -->
<g id="edge17" class="edge">
<title>node0_1_0_nodecore&#45;&gt;node0_1_1_nodecore</title>
<path fill="none" stroke="tomato" stroke-width="2" d="M353.18,-51.7C364.74,-65.32 382.97,-82.54 404,-87 419.98,-90.39 535.02,-90.39 551,-87 568.4,-83.31 584.19,-71.45 596.07,-59.88"/>
<polygon fill="tomato" stroke="tomato" stroke-width="2" points="597.5,-63.45 601.9,-53.82 592.45,-58.6 597.5,-63.45"/>
</g>
<!-- node0_1_0_membership&#45;&gt;treecore0 -->
<g id="edge10" class="edge">
<title>node0_1_0_membership&#45;&gt;treecore0</title>
<path fill="none" stroke="black" stroke-dasharray="5,2" d="M513.09,-49.7C530.68,-58.77 549.99,-72.3 560,-91 575.73,-120.39 578.17,-138.05 560,-166 510.43,-242.23 461.13,-226.59 373,-249 326.56,-260.81 195.78,-268.23 119.4,-271.7"/>
<polygon fill="black" stroke="black" points="119.44,-268.19 109.6,-272.13 119.75,-275.18 119.44,-268.19"/>
</g>
<!-- node0_1_0_membership&#45;&gt;node0_1_1_nodecore -->
<!-- node0_1_1_membership -->
<g id="node12" class="node">
<title>node0_1_1_membership</title>
<ellipse fill="none" stroke="black" cx="754" cy="-34" rx="72.29" ry="18"/>
<text text-anchor="middle" x="754" y="-30.3" font-family="monospace" font-size="14.00">MembershipCore</text>
</g>
<!-- node0_1_1_nodecore&#45;&gt;node0_1_1_membership -->
<g id="edge11" class="edge">
<title>node0_1_1_nodecore&#45;&gt;node0_1_1_membership</title>
<path fill="none" stroke="black" d="M655.72,-23.18C667.36,-21.12 678.99,-20.25 690.63,-20.56"/>
<polygon fill="black" stroke="black" points="690.09,-24.04 700.28,-21.14 690.5,-17.05 690.09,-24.04"/>
</g>
<!-- node0_1_1_nodecore&#45;&gt;node0_1_1_membership -->
<!-- node0_1_1_membership&#45;&gt;treecore0 -->
<g id="edge12" class="edge">
<title>node0_1_1_membership&#45;&gt;treecore0</title>
<path fill="none" stroke="black" stroke-dasharray="5,2" d="M730.97,-51.51C715.32,-61.99 693.76,-75.04 673,-83 656.07,-89.49 648.2,-81.12 633,-91 598.78,-113.25 607.94,-136.24 580,-166 539.76,-208.86 531.83,-227.78 477,-249 413.53,-273.56 218.36,-275.5 119.98,-274.82"/>
<polygon fill="black" stroke="black" points="120.02,-271.32 109.99,-274.74 119.96,-278.32 120.02,-271.32"/>
</g>
<!-- node0_handle&#45;&gt;node0_1_nodecore -->
<g id="edge18" class="edge">
<title>node0_handle&#45;&gt;node0_1_nodecore</title>
<path fill="none" stroke="black" d="M661.54,-134.4C652.71,-148.25 638.04,-165.96 619,-170 595.63,-174.96 427.37,-174.96 404,-170 387.08,-166.41 371.97,-154.56 360.69,-142.97"/>
<polygon fill="black" stroke="black" points="363.51,-140.87 354.19,-135.82 358.33,-145.57 363.51,-140.87"/>
</g>
<!-- node0_handle&#45;&gt;node0_1_membership -->
<g id="edge19" class="edge">
<title>node0_handle&#45;&gt;node0_1_membership</title>
<path fill="none" stroke="tomato" stroke-width="2" d="M641.87,-117C614.59,-117 587.3,-117 560.02,-117"/>
<polygon fill="tomato" stroke="tomato" stroke-width="2" points="561.77,-113.5 551.77,-117 561.77,-120.5 561.77,-113.5"/>
</g>
</g>
</svg>
