<?xml version="1.0" encoding="UTF-8" standalone="no"?>
<!DOCTYPE svg PUBLIC "-//W3C//DTD SVG 1.1//EN"
 "http://www.w3.org/Graphics/SVG/1.1/DTD/svg11.dtd">
<!-- Generated by graphviz version 2.44.1 (20200629.0846)
 -->
<!-- Title: G Pages: 1 -->
<svg width="506pt" height="70pt"
 viewBox="0.00 0.00 506.00 70.00" xmlns="http://www.w3.org/2000/svg" xmlns:xlink="http://www.w3.org/1999/xlink">
<g id="graph0" class="graph" transform="scale(1 1) rotate(0) translate(4 66)">
<title>G</title>
<polygon fill="white" stroke="transparent" points="-4,4 -4,-66 502,-66 502,4 -4,4"/>
<!-- mystr -->
<g id="node1" class="node">
<title>mystr</title>
<polygon fill="none" stroke="black" points="8,-31 8,-58 490,-58 490,-31 8,-31"/>
<text text-anchor="start" x="228.5" y="-40.8" font-family="monospace" font-size="14.00">&amp;MyStr</text>
<polygon fill="wheat" stroke="transparent" points="8,-4 8,-31 108,-31 108,-4 8,-4"/>
<polygon fill="none" stroke="black" points="8,-4 8,-31 108,-31 108,-4 8,-4"/>
<text text-anchor="start" x="14" y="-13.8" font-family="monospace" font-size="14.00">length: usize</text>
<polygon fill="aliceblue" stroke="transparent" points="108,-4 108,-31 229,-31 229,-4 108,-4"/>
<polygon fill="none" stroke="black" points="108,-4 108,-31 229,-31 229,-4 108,-4"/>
<text text-anchor="start" x="114" y="-13.8" font-family="monospace" font-size="14.00">padding: [u8; 8]</text>
<polygon fill="lightskyblue" stroke="transparent" points="229,-4 229,-31 363,-31 363,-4 229,-4"/>
<polygon fill="none" stroke="black" points="229,-4 229,-31 363,-31 363,-4 229,-4"/>
<text text-anchor="start" x="235" y="-13.8" font-family="monospace" font-size="14.00">pointer: *const u8</text>
<polygon fill="aliceblue" stroke="transparent" points="363,-4 363,-31 490,-31 490,-4 363,-4"/>
<polygon fill="none" stroke="black" points="363,-4 363,-31 490,-31 490,-4 363,-4"/>
<text text-anchor="start" x="369" y="-13.8" font-family="monospace" font-size="14.00">padding2: [u8; 8]</text>
</g>
</g>
</svg>
