<?xml version="1.0" encoding="UTF-8" standalone="no"?>
<!DOCTYPE svg PUBLIC "-//W3C//DTD SVG 1.1//EN"
 "http://www.w3.org/Graphics/SVG/1.1/DTD/svg11.dtd">
<!-- Generated by graphviz version 2.44.1 (20200629.0846)
 -->
<!-- Title: G Pages: 1 -->
<svg width="258pt" height="70pt"
 viewBox="0.00 0.00 258.00 70.00" xmlns="http://www.w3.org/2000/svg" xmlns:xlink="http://www.w3.org/1999/xlink">
<g id="graph0" class="graph" transform="scale(1 1) rotate(0) translate(4 66)">
<title>G</title>
<polygon fill="white" stroke="transparent" points="-4,4 -4,-66 254,-66 254,4 -4,4"/>
<!-- str -->
<g id="node1" class="node">
<title>str</title>
<polygon fill="none" stroke="black" points="8,-31 8,-58 242,-58 242,-31 8,-31"/>
<text text-anchor="start" x="111" y="-40.8" font-family="monospace" font-size="14.00">&amp;str</text>
<polygon fill="lightskyblue" stroke="transparent" points="8,-4 8,-31 142,-31 142,-4 8,-4"/>
<polygon fill="none" stroke="black" points="8,-4 8,-31 142,-31 142,-4 8,-4"/>
<text text-anchor="start" x="14" y="-13.8" font-family="monospace" font-size="14.00">pointer: *const u8</text>
<polygon fill="wheat" stroke="transparent" points="142,-4 142,-31 242,-31 242,-4 142,-4"/>
<polygon fill="none" stroke="black" points="142,-4 142,-31 242,-31 242,-4 142,-4"/>
<text text-anchor="start" x="148" y="-13.8" font-family="monospace" font-size="14.00">length: usize</text>
</g>
</g>
</svg>
