<?xml version="1.0" encoding="UTF-8" standalone="no"?>
<!DOCTYPE svg PUBLIC "-//W3C//DTD SVG 1.1//EN"
 "http://www.w3.org/Graphics/SVG/1.1/DTD/svg11.dtd">
<!-- Generated by graphviz version 2.44.1 (20200629.0846)
 -->
<!-- Title: G Pages: 1 -->
<svg width="258pt" height="97pt"
 viewBox="0.00 0.00 258.00 97.00" xmlns="http://www.w3.org/2000/svg" xmlns:xlink="http://www.w3.org/1999/xlink">
<g id="graph0" class="graph" transform="scale(1 1) rotate(0) translate(4 93)">
<title>G</title>
<polygon fill="white" stroke="transparent" points="-4,4 -4,-93 254,-93 254,4 -4,4"/>
<!-- mystr -->
<g id="node1" class="node">
<title>mystr</title>
<polygon fill="none" stroke="black" points="8,-57.5 8,-84.5 242,-84.5 242,-57.5 8,-57.5"/>
<text text-anchor="start" x="108" y="-67.3" font-family="monospace" font-size="14.00">&amp;[u8]</text>
<polygon fill="lightskyblue" stroke="transparent" points="8,-30.5 8,-57.5 142,-57.5 142,-30.5 8,-30.5"/>
<polygon fill="none" stroke="black" points="8,-30.5 8,-57.5 142,-57.5 142,-30.5 8,-30.5"/>
<text text-anchor="start" x="14" y="-40.3" font-family="monospace" font-size="14.00">pointer: *const u8</text>
<polygon fill="wheat" stroke="transparent" points="142,-30.5 142,-57.5 242,-57.5 242,-30.5 142,-30.5"/>
<polygon fill="none" stroke="black" points="142,-30.5 142,-57.5 242,-57.5 242,-30.5 142,-30.5"/>
<text text-anchor="start" x="148" y="-40.3" font-family="monospace" font-size="14.00">length: usize</text>
<polygon fill="lightskyblue" stroke="transparent" points="8,-3.5 8,-30.5 142,-30.5 142,-3.5 8,-3.5"/>
<polygon fill="none" stroke="black" points="8,-3.5 8,-30.5 142,-30.5 142,-3.5 8,-3.5"/>
<text text-anchor="start" x="41" y="-13.3" font-family="monospace" font-size="14.00">0xff000000</text>
<polygon fill="wheat" stroke="transparent" points="142,-3.5 142,-30.5 242,-30.5 242,-3.5 142,-3.5"/>
<polygon fill="none" stroke="black" points="142,-3.5 142,-30.5 242,-30.5 242,-3.5 142,-3.5"/>
<text text-anchor="start" x="188.5" y="-13.3" font-family="monospace" font-size="14.00">8</text>
</g>
</g>
</svg>
